<?xml version="1.0" encoding="utf-8"?>
<!-- Generator: Adobe Illustrator 27.0.0, SVG Export Plug-In . SVG Version: 6.00 Build 0)  -->
<svg version="1.1" id="Capa_1" xmlns="http://www.w3.org/2000/svg" xmlns:xlink="http://www.w3.org/1999/xlink" x="0px" y="0px"
	 viewBox="0 0 32 32" style="enable-background:new 0 0 32 32;" xml:space="preserve">
<style type="text/css">
	.st0{fill:#F04B52;}
	.st1{fill:#FFFFFF;}
</style>
<rect class="st0" width="32" height="32"/>
<g>
	<path class="st1" d="M24.4,10.3c-1.1-0.6-2.4-0.7-3.6-0.4c-0.1-2.7-2.4-4.7-5-4.6c-2.5,0.1-4.5,2.1-4.6,4.6
		C10,9.6,8.7,9.7,7.6,10.3c-2.4,1.2-3.3,4.1-2,6.5c0.6,1.1,1.5,1.9,2.7,2.3c-0.6,0.8-0.9,1.8-0.9,2.8c0,0.3,0,0.6,0.1,0.8
		c0.4,2.3,2.4,4,4.7,4c0.2,0,0.5,0,0.7,0c1.3-0.2,2.4-0.9,3.1-1.9c0.8,1,1.9,1.7,3.1,1.9c0.2,0,0.5,0,0.7,0c2.6,0,4.8-2.2,4.8-4.8
		c0-1-0.3-1.9-0.9-2.8c2.5-0.8,3.9-3.6,3-6.1C26.4,11.8,25.5,10.8,24.4,10.3L24.4,10.3z M14.2,8.2c1-1,2.6-1,3.7,0
		c0.8,0.8,1,1.9,0.6,2.9l-0.3,0.6l-0.7,0.6c-0.4-0.2-0.9-0.2-1.4-0.2c-0.6,0-1.2,0.1-1.8,0.4l-0.6-1.4C13.2,10.1,13.4,8.9,14.2,8.2z
		 M7.5,15.7c-0.6-1.3,0-2.9,1.3-3.5c0.9-0.4,2-0.3,2.8,0.4l0.5,0.5l0.4,0.9c-0.6,0.7-0.9,1.6-0.9,2.6c0,0.2,0,0.3,0,0.5H11l-0.9,0.1
		C9,17.2,7.9,16.7,7.5,15.7z M14.7,22.4c-0.3,1.4-1.7,2.3-3.1,2c-1-0.2-1.8-1-2-2.1c0-0.2,0-0.3,0-0.5c0-0.9,0.5-1.7,1.3-2.2
		l0.6-0.4l1-0.1c0.6,0.9,1.6,1.5,2.6,1.7L14.7,22.4z M16,18.7c-1.2,0-2.2-1-2.2-2.2c0-1.2,1-2.2,2.2-2.2s2.2,1,2.2,2.2
		C18.2,17.7,17.2,18.7,16,18.7z M22.4,22.3c-0.2,1.4-1.5,2.3-2.9,2.1c-1.1-0.2-2-1-2.2-2l-0.2-0.7l0.2-1c1-0.3,1.9-1,2.4-1.9
		l0.6,0.3h0.1l0.7,0.4C22.1,20.1,22.6,21.2,22.4,22.3z M24.5,15.7c-0.4,0.9-1.3,1.5-2.3,1.5h-0.3L21.2,17l-0.8-0.5
		c0-1.1-0.4-2.1-1.1-2.9l0.5-0.4l0.7-0.6c1.1-1,2.7-0.9,3.7,0.2C24.8,13.6,25,14.8,24.5,15.7L24.5,15.7z"/>
</g>
</svg>
