<?xml version="1.0" encoding="utf-8"?>
<!-- Generator: Adobe Illustrator 27.0.0, SVG Export Plug-In . SVG Version: 6.00 Build 0)  -->
<svg version="1.1" id="Capa_1" xmlns="http://www.w3.org/2000/svg" xmlns:xlink="http://www.w3.org/1999/xlink" x="0px" y="0px"
	 viewBox="0 0 207 46.32" style="enable-background:new 0 0 207 46.32;" xml:space="preserve">
<style type="text/css">
	.st0{fill:#171E37;}
</style>
<g>
	<path class="st0" d="M19.3,23.05c2.89-0.75,5.41-3.58,6.73-6.85c0.63-1.63,1.01-3.4,1.01-5.03c0-1.57-0.38-3.08-1.26-4.28
		c-0.75-1.19-2.01-2.08-3.71-2.64c-1.13-0.19-2.39-0.38-3.84-0.44c-4.4-0.19-7.99,1.32-10.5,3.52c-1.38,1.26-2.39,2.7-2.96,4.21
		c-0.57,1.38-0.69,2.77-0.44,4.09c0.44,1.57,1.63,2.01,2.64,2.39c0.5,0.19,0.94,0.38,1.32,0.63c0.69,0.44,1.01,1.07,1.07,1.57
		c0,0.31-0.06,0.57-0.19,0.82c-0.13,0.25-0.38,0.44-0.69,0.5c-0.38,0.19-1.01,0.13-1.76-0.31c-2.14-1.19-3.4-2.96-3.9-4.97
		c-0.44-1.7-0.25-3.52,0.44-5.34c0.63-1.7,1.82-3.4,3.4-4.84c2.77-2.45,6.79-4.15,11.63-3.9c0.57,0,1.07,0.06,1.57,0.13l0.06-0.06
		c0.94,0.06,1.82,0.25,2.64,0.44c4.4,1.01,7.17,3.02,8.49,5.53c0.82,1.45,1.19,3.08,1.07,4.78c-0.13,1.57-0.69,3.21-1.63,4.78
		c-1.7,2.64-4.53,4.97-8.3,6.23l0.38,0.13c0.63,0.06,1.19,0.25,1.7,0.44c2.52,0.88,4.4,2.08,5.79,3.58c1.32,1.38,2.2,3.02,2.52,4.72
		c0.44,1.7,0.31,3.4-0.13,4.97c-0.82,2.58-2.77,4.78-5.66,5.79c-1.51,0.57-3.84,1.26-6.41,1.51c-0.31,0-0.57,0-0.88,0.06
		c-1.7,0.06-6.73-0.13-7.92-1.82c-0.57-0.75-0.69-1.7-0.82-3.02l-0.06-0.38c-0.31-2.89-0.25-10.06,0.25-17.29
		c0.38-5.22,1.01-10.56,1.82-14.21c0-0.82,0.44-1.38,1.07-1.7c0.38-0.13,0.88-0.19,1.26-0.19c0.44,0.06,0.88,0.19,1.26,0.44
		c0.75,0.44,1.32,1.26,1.07,2.39c-0.63,2.83-1.13,8.24-1.38,13.96C17.16,23.36,18.23,23.24,19.3,23.05z M19.99,43.48
		c0.13,0,0.25-0.06,0.31-0.06c2.89-0.38,4.97-2.2,6.16-4.53c0.69-1.32,1.07-2.83,1.19-4.28c0.13-1.51,0-2.96-0.44-4.28
		c-0.57-1.95-1.76-3.52-3.58-4.28c-2.08-0.63-4.65-1.01-7.73-0.94c0,0.88-0.06,1.76-0.06,2.64c-0.06,1.13-0.57,15.53,0.44,15.59
		C17.54,43.55,18.8,43.55,19.99,43.48z"/>
	<path class="st0" d="M40.87,37.38c0.38,2.64,1.19,4.59,2.52,4.9c1.7,0.25,3.27-0.5,4.65-2.01c1.82-1.89,3.4-4.97,4.65-8.74
		c0.31-1.13,1.95-0.69,1.51,0.57c-1.32,3.96-2.96,7.23-4.97,9.31c-1.95,2.08-4.28,3.02-6.79,2.33c-3.77-1.01-5.85-4.34-6.54-8.24
		c-0.38-1.95-0.31-4.02,0-6.04c0.31-2.01,0.88-3.96,1.82-5.6c1.57-2.89,3.96-4.84,6.98-4.59c1.01,0.06,1.76,0.57,2.26,1.38
		c0.57,0.82,0.75,1.95,0.75,3.27c-0.06,1.2-0.31,2.58-0.82,3.9c-1.13,2.89-3.27,5.79-6.29,6.98C40.62,35.75,40.74,36.57,40.87,37.38
		z M42.06,24.37c-0.63,1.82-1.07,4.09-1.32,6.35c-0.06,0.75-0.13,1.51-0.13,2.33c2.26-1.19,3.84-3.46,4.72-5.79
		c0.44-1.19,0.69-2.33,0.75-3.4c0-0.94-0.13-1.76-0.44-2.33c-0.25-0.38-0.57-0.57-1.01-0.63C43.7,20.91,42.75,22.36,42.06,24.37z"/>
	<path class="st0" d="M55.33,19.02c0.38-0.13,0.82-0.19,1.26-0.13c0.44,0.06,0.88,0.19,1.26,0.44c0.94,0.5,1.63,1.38,1.38,2.64
		c-0.31,1.7-0.57,3.33-0.75,5.03c0.25-0.94,0.63-1.89,0.94-2.7c1.64-4.09,3.84-6.67,6.35-6.6l0.75,0.13
		c2.01,0.5,3.14,2.58,3.77,5.28c0.31,1.63,0.5,3.52,0.5,5.41c0.5-1.45,1.07-2.89,1.76-4.21c1.57-3.02,3.52-5.28,6.04-5.28
		c3.58-0.06,4.53,3.14,4.59,7.29c0.06,2.14-0.19,4.53-0.38,6.92c-0.19,1.89-0.31,3.71-0.31,5.22c-0.06,2.07,0.19,3.58,1.07,3.58
		c2.14-0.06,4.28-6.92,5.22-9.93l0.19-0.57c0.25-0.94,1.89-0.5,1.57,0.57l-0.19,0.5c-1.01,3.27-3.4,10.88-6.67,11.07
		c-4.59,0.31-5.91-2.83-6.16-6.29c-0.13-1.51,0-3.08,0.06-4.34c0-0.38,0.06-0.69,0.06-0.88l0.25-3.71c0.25-2.77,0.5-5.28,0-6.54
		c-0.31-0.82-1.2-0.57-1.7-0.06c-0.75,0.75-1.51,1.95-2.2,3.21c-1.7,3.33-2.89,7.73-3.52,10.75c-0.13,1.26-0.31,2.26-0.5,2.89
		c-0.19,1.01-0.88,1.57-1.7,1.76c-0.38,0.13-0.69,0.13-1.07,0.06c-0.31-0.06-0.69-0.19-1.01-0.38c-0.88-0.5-1.51-1.45-1.32-2.77
		c0.38-2.77,0.88-8.55,0.5-12.76c-0.13-1.32-0.38-2.52-0.75-3.27c-0.57-1.32-1.19-0.94-1.89,0c-0.63,0.94-1.26,2.14-1.82,3.58
		c-1.51,3.9-2.58,9.43-2.89,15.34c0,0.69,0.06,1.32,0.13,1.95c0,0.69-0.13,1.38-1.01,1.57c-2.83,0.57-3.9-0.88-4.28-2.96
		c-0.19-0.88-0.25-1.82-0.25-2.77c-0.13-2.58-0.13-5.22,0.13-8.11c0.19-2.83,0.63-5.85,1.32-9.37
		C54.07,19.78,54.57,19.21,55.33,19.02z"/>
	<path class="st0" d="M109.59,39.71c1.57-2.14,2.96-5.28,3.96-8.17c0.44-1.45,2.01-0.94,1.57,0.44c-1.01,3.02-2.52,6.41-4.21,8.68
		c-1.45,2.08-3.14,3.33-4.9,2.89h-0.13c-0.06-0.06-0.06-0.06-0.13-0.06c-2.7-0.88-4.09-4.02-4.46-8.36
		c-1.26,4.09-3.27,8.36-5.79,8.55c-3.02,0.25-4.97-1.76-5.91-4.78c-0.63-1.82-0.88-4.02-0.75-6.23c0.13-2.26,0.57-4.59,1.32-6.67
		c1.64-4.4,4.72-7.73,9.12-7.23c0.57,0.06,1.07,0.19,1.57,0.57c0.69,0.5,1.19,1.32,1.57,2.33c0,0.06,0,0.13,0.06,0.19l0.5-2.01
		l0.19-0.69c0.19-0.88,0.88-1.32,1.7-1.38c0.38,0,0.69,0,1.07,0.13c0.31,0.13,0.69,0.31,0.94,0.5c0.88,0.57,1.45,1.57,1.13,2.7
		c-1.07,3.21-1.7,8.36-1.95,12.83c-0.13,2.33-0.13,4.4,0,5.97c0.13,1.26,0.44,2.45,1.51,1.82C108.21,41.35,108.9,40.65,109.59,39.71
		z M95.44,25.81c-0.82,2.33-1.38,5.03-1.57,7.61c-0.25,2.58-0.19,5.03,0.19,6.67c0.31,1.26,0.75,2.01,1.32,1.95
		c3.08-0.25,5.47-11.07,6.04-13.9c0-0.38,0.06-0.69,0.13-1.07c-0.06-1.82-0.25-3.58-0.69-4.84c-0.19-0.44-0.38-0.88-0.57-1.13
		c-0.38-0.5-0.82-0.69-1.51-0.31C97.45,21.41,96.32,23.36,95.44,25.81z"/>
	<path class="st0" d="M119.84,36.19c-0.06-4.78,1.51-10.75,2.39-14.02c0.13-0.57,0-0.88-0.5-1.01c-1.51-0.25-3.02-0.63-4.4-1.2
		c-0.06,0.94-0.19,1.95-0.31,2.96c-0.38,3.14-1.13,6.73-1.89,9.12c-0.44,1.13-1.95,0.69-1.57-0.5c0.75-2.26,1.45-5.79,1.89-8.8
		c0.13-1.26,0.25-2.45,0.25-3.58c-1.13-0.69-2.01-1.64-2.52-2.83c-0.44-1.13-0.25-2.08,0.25-2.64c0.25-0.31,0.63-0.57,0.94-0.63
		c0.38-0.13,0.82-0.13,1.19,0c0.75,0.25,1.45,1.01,1.7,2.2c0.13,0.82,0.13,1.82,0.13,2.96c2.01,0.94,4.78,1.38,7.11,1.76
		c2.83,0.5,3.4,1.38,2.7,3.77c-1.13,4.15-3.4,12.26-2.83,16.41c0.19,1.38,0.69,2.2,1.7,2.08c2.77-0.38,4.72-6.54,5.85-10l0.19-0.69
		c0.31-1.01,1.89-0.5,1.57,0.5l-0.19,0.69c-1.26,3.84-3.4,10.63-7.23,11.13c-0.25,0.06-0.57,0.06-0.75,0.06
		C121.28,43.92,119.9,40.53,119.84,36.19z"/>
	<path class="st0" d="M140.9,37.89c1.07-2.39,1.95-5.03,2.39-6.35c0.38-1.07,1.95-0.57,1.57,0.57c-0.44,1.38-1.38,4.02-2.45,6.48
		c-1.07,2.26-2.33,4.28-3.71,5.03c-0.38,0.19-0.57,0.25-1.01,0.25c-0.19,0-0.38,0-0.57-0.06c-1.64-0.25-2.96-1.45-3.77-3.52
		c-0.82-1.95-1.26-4.72-1.26-8.24c0-2.39,0.19-5.22,0.63-8.36c0-0.94,0.57-1.51,1.32-1.76c0.38-0.06,0.82-0.13,1.26-0.06
		c0.44,0.06,0.88,0.19,1.26,0.38c0.94,0.44,1.64,1.26,1.45,2.2c-0.25,1.45-0.5,2.96-0.63,4.53c-0.38,3.33-0.38,6.67-0.13,9.24
		c0.19,1.63,0.5,2.89,0.82,3.52c0.06,0.19,0.25,0.25,0.44,0.06C139.27,41.09,140.15,39.59,140.9,37.89z M136.31,14.81l0.44-0.31
		c0.25-0.13,0.57-0.25,0.82-0.31c0.31-0.06,0.63-0.06,0.94,0.06c0.44,0.13,0.75,0.38,1.01,0.82c0.63,1.13-0.63,2.45-1.89,3.77
		l-1.07,1.13l-0.63,0.75l-0.57-0.82c-0.19-0.19-0.38-0.5-0.63-0.82c-1.01-1.38-2.33-3.14-1.76-4.21c0.19-0.38,0.44-0.57,0.82-0.69
		c0.25-0.13,0.63-0.19,1.01-0.13c0.31,0,0.57,0.13,0.88,0.31C135.93,14.5,136.12,14.62,136.31,14.81z"/>
	<path class="st0" d="M163.92,39.71c1.57-2.14,2.96-5.28,3.96-8.17c0.44-1.45,2.01-0.94,1.57,0.44c-1.01,3.02-2.52,6.41-4.21,8.68
		c-1.45,2.08-3.14,3.33-4.9,2.89h-0.13c-0.06-0.06-0.06-0.06-0.13-0.06c-2.7-0.88-4.09-4.02-4.46-8.36
		c-1.26,4.09-3.27,8.36-5.79,8.55c-3.02,0.25-4.97-1.76-5.91-4.78c-0.63-1.82-0.88-4.02-0.75-6.23c0.13-2.26,0.57-4.59,1.32-6.67
		c1.64-4.4,4.72-7.73,9.12-7.23c0.57,0.06,1.07,0.19,1.57,0.57c0.69,0.5,1.19,1.32,1.57,2.33c0,0.06,0,0.13,0.06,0.19l0.5-2.01
		l0.19-0.69c0.19-0.88,0.88-1.32,1.7-1.38c0.38,0,0.69,0,1.07,0.13c0.31,0.13,0.69,0.31,0.94,0.5c0.88,0.57,1.45,1.57,1.13,2.7
		c-1.07,3.21-1.7,8.36-1.95,12.83c-0.13,2.33-0.13,4.4,0,5.97c0.13,1.26,0.44,2.45,1.51,1.82
		C162.53,41.35,163.22,40.65,163.92,39.71z M149.77,25.81c-0.82,2.33-1.38,5.03-1.57,7.61c-0.25,2.58-0.19,5.03,0.19,6.67
		c0.31,1.26,0.75,2.01,1.32,1.95c3.08-0.25,5.47-11.07,6.04-13.9c0-0.38,0.06-0.69,0.13-1.07c-0.06-1.82-0.25-3.58-0.69-4.84
		c-0.19-0.44-0.38-0.88-0.57-1.13c-0.38-0.5-0.82-0.69-1.51-0.31C151.78,21.41,150.65,23.36,149.77,25.81z"/>
	<path class="st0" d="M174.16,36.19c-0.06-4.78,1.51-10.75,2.39-14.02c0.13-0.57,0-0.88-0.5-1.01c-1.51-0.25-3.02-0.63-4.4-1.2
		c-0.06,0.94-0.19,1.95-0.31,2.96c-0.38,3.14-1.13,6.73-1.89,9.12c-0.44,1.13-1.95,0.69-1.57-0.5c0.75-2.26,1.45-5.79,1.89-8.8
		c0.13-1.26,0.25-2.45,0.25-3.58c-1.13-0.69-2.01-1.64-2.52-2.83c-0.44-1.13-0.25-2.08,0.25-2.64c0.25-0.31,0.63-0.57,0.94-0.63
		c0.38-0.13,0.82-0.13,1.19,0c0.75,0.25,1.45,1.01,1.7,2.2c0.13,0.82,0.13,1.82,0.13,2.96c2.01,0.94,4.78,1.38,7.11,1.76
		c2.83,0.5,3.4,1.38,2.7,3.77c-1.13,4.15-3.4,12.26-2.83,16.41c0.19,1.38,0.69,2.2,1.7,2.08c2.77-0.38,4.72-6.54,5.85-10l0.19-0.69
		c0.31-1.01,1.89-0.5,1.57,0.5l-0.19,0.69c-1.26,3.84-3.4,10.63-7.23,11.13c-0.25,0.06-0.57,0.06-0.75,0.06
		C175.61,43.92,174.22,40.53,174.16,36.19z"/>
	<path class="st0" d="M178.69,9.78c-0.63,0.63-1.01,1.38-1.32,2.26c-0.38,0.94-1.01,1.45-1.64,1.63c-0.31,0.06-0.69,0-1.01-0.13
		c-0.31-0.19-0.5-0.44-0.69-0.82c-0.19-0.5-0.06-1.32,0.5-2.2c3.08-4.28,7.92-3.71,12.95-2.33l0.44-2.58c0-0.88,0.5-1.45,1.19-1.7
		c0.38-0.13,0.75-0.13,1.19-0.13c0.38,0.06,0.82,0.19,1.13,0.38c0.88,0.5,1.57,1.38,1.38,2.58l-0.44,2.96
		c1.89,0.57,3.71,1.01,5.34,1.19c2.7,0.06,4.02-2.26,4.53-3.14c0.44-0.75,1.07-1.07,1.63-1.01c0.25,0,0.5,0.06,0.69,0.19
		c0.25,0.13,0.44,0.25,0.57,0.5c0.25,0.5,0.31,1.13-0.13,1.89c-1.7,3.02-4.46,3.58-7.67,3.21l-0.63-0.13
		c-1.45-0.19-2.95-0.63-4.53-1.07c-0.63,5.47-1.38,14.53-1.13,21.51c0.19,5.16,0.88,9.05,2.45,9.43c0.82,0.19,1.89-1.51,2.89-3.65
		c1.13-2.33,2.14-5.22,2.77-7.11c0.31-1.01,1.89-0.5,1.51,0.5c-0.63,1.95-1.64,4.9-2.77,7.29c-1.26,2.58-2.7,4.59-4.34,4.59
		c-0.38,0-0.75,0-1.13-0.06c-2.33-0.5-3.9-2.58-4.84-5.6c-0.88-2.83-1.32-6.54-1.38-10.44c-0.19-6.29,0.38-13.2,1.01-17.92
		c-2.39-0.69-4.72-1.13-6.79-0.94C179.69,9.09,179.13,9.34,178.69,9.78z"/>
</g>
</svg>
