<svg width="75" height="78" viewBox="0 0 75 78" fill="none" xmlns="http://www.w3.org/2000/svg">
<path d="M5.33326 35.7522V51.8414C5.33326 67.9306 11.7833 74.3806 27.8724 74.3806H47.1866C63.2758 74.3806 69.7258 67.9306 69.7258 51.8414V35.7522M37.5475 38.5474C44.105 38.5474 48.9425 33.2083 48.2975 26.6508L45.9325 2.71411H29.1983L26.7975 26.6508C26.1525 33.2083 30.99 38.5474 37.5475 38.5474ZM60.1584 38.5474C67.3967 38.5474 72.7 32.6708 71.9834 25.4683L70.98 15.6141C69.69 6.29744 66.1067 2.71411 56.7184 2.71411H45.7892L48.2975 27.8333C48.9067 33.7458 54.2459 38.5474 60.1584 38.5474ZM14.7573 38.5474C20.6698 38.5474 26.009 33.7458 26.5823 27.8333L29.0907 2.71411H18.1615C8.77318 2.71411 5.18981 6.29744 3.89981 15.6141L2.93231 25.4683C2.21564 32.6708 7.51898 38.5474 14.7573 38.5474ZM37.5475 56.4641C31.5634 56.4641 28.5892 59.4383 28.5892 65.4224V74.3808H46.5059V65.4224C46.5059 59.4383 43.5317 56.4641 37.5475 56.4641Z" stroke="white" stroke-width="5.375" stroke-linecap="round" stroke-linejoin="round"/>
</svg>
